<svg xmlns="http://www.w3.org/2000/svg" viewBox="0 0 320 200" role="img" aria-label="">
  <defs>
    <linearGradient id="sky" x1="0" y1="0" x2="0" y2="1">
      <stop offset="0%" stop-color="#f4f0e8"/>
      <stop offset="100%" stop-color="#ddd5c8"/>
    </linearGradient>
    <linearGradient id="rock" x1="0" y1="0" x2="1" y2="1">
      <stop offset="0%" stop-color="#8a7d6c"/>
      <stop offset="100%" stop-color="#5a5348"/>
    </linearGradient>
  </defs>
  <rect width="320" height="200" fill="url(#sky)"/>
  <path d="M0 200 L0 118 L52 92 L98 108 L148 68 L208 88 L268 58 L320 78 L320 200 Z" fill="url(#rock)" opacity="0.35"/>
  <path d="M0 200 L0 138 L68 112 L128 132 L188 96 L248 118 L320 102 L320 200 Z" fill="#6b6358" opacity="0.55"/>
  <path d="M188 96 L248 118 L208 200 L148 200 Z" fill="rgba(181,84,74,0.35)" stroke="#b5544a" stroke-width="1.2" stroke-dasharray="4 3"/>
  <line x1="188" y1="96" x2="248" y2="118" stroke="#b5544a" stroke-width="2"/>
  <circle cx="188" cy="96" r="4" fill="#b5544a"/>
  <circle cx="248" cy="118" r="4" fill="#b5544a"/>
  <g transform="translate(28,28)" opacity="0.85">
    <rect width="72" height="52" rx="6" fill="rgba(252,251,247,0.9)" stroke="rgba(47,83,103,0.2)"/>
    <text x="36" y="22" text-anchor="middle" font-family="Georgia,serif" font-size="18" fill="#2f5367" font-weight="600">GSI</text>
    <text x="36" y="40" text-anchor="middle" font-family="Georgia,serif" font-size="10" fill="#496f61" font-style="italic">Hoek-Brown</text>
  </g>
  <text x="24" y="186" font-family="Georgia,serif" font-size="10" fill="#5a4c3b" font-style="italic" opacity="0.7">slope stability - wedge</text>
</svg>
