<svg xmlns="http://www.w3.org/2000/svg" viewBox="0 0 320 200" role="img" aria-label="">
  <defs>
    <linearGradient id="bg" x1="0" y1="0" x2="1" y2="1">
      <stop offset="0%" stop-color="#fffdf8"/>
      <stop offset="100%" stop-color="#e8dfd0"/>
    </linearGradient>
  </defs>
  <rect width="320" height="200" fill="url(#bg)"/>
  <g transform="translate(48,44)">
    <rect x="0" y="88" width="224" height="28" fill="#4a453c" opacity="0.25"/>
    <rect x="0" y="60" width="224" height="28" fill="#8a8274" opacity="0.45"/>
    <rect x="0" y="36" width="224" height="24" fill="#b89344" opacity="0.55"/>
    <rect x="0" y="16" width="224" height="20" fill="#2f5367" opacity="0.65"/>
    <rect x="88" y="0" width="48" height="116" fill="#a5643a" opacity="0.5" rx="2"/>
    <line x1="0" y1="16" x2="224" y2="16" stroke="#fffaf0" stroke-width="1" opacity="0.5"/>
    <line x1="0" y1="36" x2="224" y2="36" stroke="#fffaf0" stroke-width="1" opacity="0.35"/>
    <line x1="0" y1="60" x2="224" y2="60" stroke="#fffaf0" stroke-width="1" opacity="0.35"/>
    <line x1="0" y1="88" x2="224" y2="88" stroke="#fffaf0" stroke-width="1" opacity="0.35"/>
  </g>
  <path d="M24 148 L296 148" stroke="#a5643a" stroke-width="1.5" opacity="0.5"/>
  <text x="252" y="142" font-family="Georgia,serif" font-size="9" fill="#7d4a28" font-style="italic">CBR</text>
  <circle cx="268" cy="52" r="22" fill="none" stroke="#2f5367" stroke-width="2" opacity="0.4"/>
  <line x1="268" y1="52" x2="268" y2="38" stroke="#2f5367" stroke-width="2"/>
  <text x="24" y="186" font-family="Georgia,serif" font-size="10" fill="#5a4c3b" font-style="italic" opacity="0.7">foundation - pavement layers</text>
</svg>
