<svg xmlns="http://www.w3.org/2000/svg" viewBox="0 0 320 200" role="img" aria-label="">
  <defs>
    <radialGradient id="bg" cx="35%" cy="28%" r="85%">
      <stop offset="0%" stop-color="#fdfcf9"/>
      <stop offset="45%" stop-color="#e8e2d6"/>
      <stop offset="100%" stop-color="#c9bfb0"/>
    </radialGradient>
    <linearGradient id="glow" x1="0" y1="0" x2="1" y2="1">
      <stop offset="0%" stop-color="#2f5367" stop-opacity="0.18"/>
      <stop offset="100%" stop-color="#a5643a" stop-opacity="0.08"/>
    </linearGradient>
  </defs>
  <rect width="320" height="200" fill="url(#bg)"/>
  <rect width="320" height="200" fill="url(#glow)"/>
  <circle cx="160" cy="102" r="72" fill="#fcfbf7" stroke="rgba(47,83,103,0.22)" stroke-width="1.5"/>
  <circle cx="160" cy="102" r="58" fill="none" stroke="rgba(47,83,103,0.12)" stroke-width="1"/>
  <g stroke="rgba(47,83,103,0.35)" stroke-width="1">
    <line x1="160" y1="34" x2="160" y2="46"/><line x1="160" y1="158" x2="160" y2="170"/>
    <line x1="88" y1="102" x2="100" y2="102"/><line x1="220" y1="102" x2="232" y2="102"/>
    <line x1="109" y1="51" x2="118" y2="60"/><line x1="202" y1="144" x2="211" y2="153"/>
    <line x1="211" y1="51" x2="202" y2="60"/><line x1="118" y1="144" x2="109" y2="153"/>
  </g>
  <text x="160" y="28" text-anchor="middle" font-family="Georgia,serif" font-size="11" fill="#a5643a" font-style="italic">N</text>
  <line x1="160" y1="102" x2="160" y2="48" stroke="#2f5367" stroke-width="3" stroke-linecap="round"/>
  <circle cx="160" cy="48" r="7" fill="#2f5367" stroke="#fcfbf7" stroke-width="2"/>
  <path d="M96 148 Q130 132 160 138 T224 148" fill="none" stroke="#496f61" stroke-width="2.5" opacity="0.75"/>
  <path d="M98 156 Q132 142 160 148 T222 156" fill="none" stroke="#a5643a" stroke-width="2" opacity="0.55"/>
  <text x="24" y="186" font-family="Georgia,serif" font-size="10" fill="#5a4c3b" font-style="italic" opacity="0.7">mu0 - circular statistics</text>
</svg>
